<svg id="Layer_1" data-name="Layer 1" xmlns="http://www.w3.org/2000/svg" width="60" height="73" viewBox="0 0 119.8 144.17"><defs><style>.cls-1,.cls-2{stroke:#000;stroke-linejoin:round;}.cls-1{stroke-width:0.5px;}.cls-2,.cls-4{fill:#00a31c;}.cls-2{stroke-width:3px;}.cls-3{fill:#0077c0;}</style></defs><title>logo</title><path class="cls-1" d="M118.2,94.92c-2,14.4-3.4,19.7-10.6,28.1-8.4,9.9-21.6,20.9-37.6,20.9-15.4,0-27.5-6-38.2-15.5-9.9-8.9-14.7-18.3-18.9-34.7-2.8-11-2.4-21.3,3.5-30.4,5.7-8.7,15.8-16.1,27-20.5,7-2.7,9.5-14.1,16.4-14.1,5.7,0,16.6,10.7,22.5,12.5,13.4,4,26.3,12.1,32.9,22.6C121.1,72.82,119.8,84.22,118.2,94.92Z"/><path class="cls-2" d="M116.7,2.92c-2.6,17.9-5.9,28.2-15.8,34.8-16.8,11.1-34.9,5.7-36.2-1.6-7.1-9.7-3.7-19.4,9.6-28.3C86.2-.08,99,.92,116.7,2.92Z"/><path class="cls-3" d="M74.8,50.42c-2.4-1.5-4.6-2.1-6.9-3.6-1.4-.9-3.3-3.2-5-5.1-.3,3.1-1.3,4.4-2.3,5.3a32.74,32.74,0,0,1-5.7,3.4c-1.7.9-10.7,6.3-10.7,17.9s9.8,20.2,20.6,20.2,20.3-7.9,20.3-19.8A21.48,21.48,0,0,0,74.8,50.42Z"/><path class="cls-3" d="M74.8,50.42c-2.3-1.5-4.6-2.1-6.9-3.6-1.4-.9-3.3-3.2-5-5.1-.3,3.1-1.2,4.4-2.3,5.3a32.74,32.74,0,0,1-5.7,3.4c-1.7.9-10.7,6.3-10.7,17.9a19.67,19.67,0,0,0,2.7,10,20.83,20.83,0,0,0,17.9,10.2c10.8,0,20.3-7.9,20.3-19.8a20.85,20.85,0,0,0-5.3-14.1A22.53,22.53,0,0,0,74.8,50.42Zm5.4,5.2a20.15,20.15,0,0,1,4.5,13,19.72,19.72,0,0,1-1.6,8,18.76,18.76,0,0,1-4.3,6.1,20.93,20.93,0,0,1-21.7,3.8,23.08,23.08,0,0,1-6.5-4.1,19.55,19.55,0,0,1-1.4-26.9,20.26,20.26,0,0,1,5.9-4.8,9.14,9.14,0,0,1,1.4-.7,29.19,29.19,0,0,0,4.4-2.7c.9-.7,1.9-1.8,2.4-4.7a24.67,24.67,0,0,0,4.5,4.6A23.36,23.36,0,0,0,71.3,49a35.88,35.88,0,0,1,3.4,1.7h0A20.21,20.21,0,0,1,80.2,55.62Z"/><path class="cls-3" d="M54.4,90.32c-2.5-1.5-4.8-2.1-7.1-3.6a31.91,31.91,0,0,1-5.3-5.2c-.1,3.1-.9,4.4-2,5.3a26.6,26.6,0,0,1-5.5,3.4,18.83,18.83,0,0,0-9.4,18c.9,11.7,11.2,20.3,22.1,20.3s19.7-7.9,18.8-20C65.1,96.72,55.9,91.22,54.4,90.32Z"/><path class="cls-3" d="M54.4,90.32c-2.4-1.5-4.8-2.1-7.1-3.6a28.37,28.37,0,0,1-5.3-5.2c-.1,3.1-.9,4.4-2,5.3a26.6,26.6,0,0,1-5.5,3.4,18.83,18.83,0,0,0-9.4,18,21.69,21.69,0,0,0,3.4,10.1,22.81,22.81,0,0,0,18.6,10.2c10.8,0,19.7-7.9,18.8-20a23,23,0,0,0-6.3-14.2A34,34,0,0,0,54.4,90.32Zm5.8,5.3a22.28,22.28,0,0,1,5.4,13.1,19.67,19.67,0,0,1-1,8.1,17.59,17.59,0,0,1-3.9,6.2,18.78,18.78,0,0,1-13.6,5.4,21.59,21.59,0,0,1-7.8-1.5,22.75,22.75,0,0,1-6.8-4.2,20.79,20.79,0,0,1-7.1-14.3,18.34,18.34,0,0,1,3.7-12.8,22,22,0,0,1,5.5-4.9c.5-.3.9-.5,1.3-.7a23.35,23.35,0,0,0,4.2-2.8c.9-.7,1.8-1.9,2-4.8A25.32,25.32,0,0,0,47,87a32.44,32.44,0,0,0,3.7,1.9,37,37,0,0,1,3.5,1.7h0A23.87,23.87,0,0,1,60.2,95.62Z"/><path class="cls-3" d="M101.6,89.42c-2.3-1.5-4.5-2.1-6.7-3.6-1.3-.9-3.1-3.2-4.6-5.1-.5,3.1-1.5,4.4-2.7,5.3a37.85,37.85,0,0,1-5.9,3.4c-1.7.9-11.1,6.2-11.8,17.8s8.5,20.1,19.4,20.1,20.7-7.9,21.5-19.8A19.62,19.62,0,0,0,101.6,89.42Z"/><path class="cls-3" d="M101.6,89.42c-2.3-1.5-4.5-2.1-6.7-3.6-1.3-.9-3.1-3.2-4.6-5.1-.5,3.1-1.5,4.4-2.7,5.3a37.85,37.85,0,0,1-5.9,3.4c-1.7.9-11.1,6.2-11.8,17.8a18.84,18.84,0,0,0,19.4,20.1c10.8,0,20.7-7.9,21.5-19.8a20,20,0,0,0-4.4-14.1A24.06,24.06,0,0,0,101.6,89.42Zm5.1,5.3a19.27,19.27,0,0,1,3.7,12.9,22.05,22.05,0,0,1-2.1,8,20,20,0,0,1-4.7,6.1A21.79,21.79,0,0,1,89.3,127a19.81,19.81,0,0,1-7.6-1.5,19.16,19.16,0,0,1-6.2-4.1,18.45,18.45,0,0,1-5.3-14.2,20.26,20.26,0,0,1,5.4-12.7,21.55,21.55,0,0,1,6.2-4.8c.5-.3,1-.5,1.4-.7a35.54,35.54,0,0,0,4.6-2.7c1-.7,2.1-1.8,2.7-4.7a24.33,24.33,0,0,0,4.3,4.6A18.64,18.64,0,0,0,98.2,88a25.86,25.86,0,0,1,3.3,1.7h0A20.14,20.14,0,0,1,106.7,94.72Z"/><path class="cls-3" d="M39.4,61c-.9-1.7-2-2.6-2.9-4.2a22,22,0,0,1-1.3-5.1c-1.1,2.4-2,3.2-2.8,3.7A20.61,20.61,0,0,1,28.2,57c-1.2.3-7.9,2.8-11.2,12.1s-.2,18.1,5.9,20.3,13.7-2.2,17.2-11.7C43.4,68.12,39.9,62,39.4,61Z"/><path class="cls-3" d="M39.4,61c-.9-1.7-2-2.6-2.9-4.2a22,22,0,0,1-1.3-5.1c-1.1,2.4-2,3.3-2.8,3.7A20.61,20.61,0,0,1,28.2,57c-1.2.4-7.9,2.8-11.2,12.1a20.3,20.3,0,0,0-1.3,8.5c.3,5.7,3.1,10.2,7.3,11.7,6.2,2.2,13.7-2.2,17.2-11.7a21.09,21.09,0,0,0,1-12.3A28.27,28.27,0,0,0,39.4,61Zm1.6,5.3a22.06,22.06,0,0,1-1.2,11.2,21.42,21.42,0,0,1-3.2,6,15.83,15.83,0,0,1-4.2,4,10.42,10.42,0,0,1-9.4,1.4,8.86,8.86,0,0,1-3.9-2.8,13.59,13.59,0,0,1-2.5-4.6,19.64,19.64,0,0,1,.6-12.6,21.05,21.05,0,0,1,6.3-9.2A17.74,17.74,0,0,1,28.2,57c.3-.1.7-.2,1-.3a13,13,0,0,0,3.3-1.3c.7-.4,1.6-1.1,2.7-3.3a15.85,15.85,0,0,0,1.3,4.6,12.13,12.13,0,0,0,1.5,2.2A11,11,0,0,1,39.4,61h0A27.84,27.84,0,0,1,41,66.32Z"/><path class="cls-3" d="M99.5,53.42c-1.9-.4-3.3-.2-5.1-.7a23.24,23.24,0,0,1-4.7-2.4c1.1,2.4,1.1,3.6.9,4.6a21.82,21.82,0,0,1-1.6,4.2c-.5,1.1-3.1,7.7,1.6,16.4s13.3,12.2,19.1,9.1,7.5-11.7,2.7-20.6S100.6,53.72,99.5,53.42Z"/><path class="cls-3" d="M99.5,53.42c-1.8-.4-3.3-.2-5.1-.7a23.24,23.24,0,0,1-4.7-2.4c1.1,2.4,1.1,3.6.9,4.6a21.82,21.82,0,0,1-1.6,4.2c-.5,1.1-3.1,7.7,1.6,16.4a21.74,21.74,0,0,0,5.5,6.7c4.4,3.6,9.7,4.5,13.6,2.4,5.7-3.1,7.5-11.7,2.7-20.6a22.49,22.49,0,0,0-8.5-9A20.19,20.19,0,0,0,99.5,53.42Zm5,2.3a21.49,21.49,0,0,1,7.6,8.4,20.91,20.91,0,0,1,2.4,6.4,16.32,16.32,0,0,1,.2,5.8c-.6,3.6-2.4,6.5-5.2,8a9.32,9.32,0,0,1-4.7,1.1,11.89,11.89,0,0,1-5.1-1.2,20.07,20.07,0,0,1-9-8.8A19.73,19.73,0,0,1,88,64.62a14.53,14.53,0,0,1,1.2-5.3c.1-.3.3-.6.4-.9a19.79,19.79,0,0,0,1.2-3.3c.2-.8.3-1.9-.7-4.2A16.74,16.74,0,0,0,94.4,53c.9.2,1.8.3,2.6.4a24.18,24.18,0,0,1,2.5.3h0A19.36,19.36,0,0,1,104.5,55.72Z"/><path class="cls-3" d="M74.1,125.62c-1.3-.6-2.5-.8-3.7-1.4a20.69,20.69,0,0,1-2.7-2,2.77,2.77,0,0,1-1.3,2.1,15.84,15.84,0,0,1-3.1,1.3c-.9.3-5.8,2.5-5.8,7s5.3,7.9,11.1,7.9,10.9-3.1,10.9-7.8C79.7,128.12,74.9,126,74.1,125.62Z"/><path class="cls-3" d="M74.1,125.62c-1.3-.6-2.5-.8-3.7-1.4a20.69,20.69,0,0,1-2.7-2,2.77,2.77,0,0,1-1.3,2.1,15.84,15.84,0,0,1-3.1,1.3c-.9.4-5.8,2.5-5.8,7a5.61,5.61,0,0,0,1.5,3.9c2,2.4,5.7,4,9.7,4,5.9,0,10.9-3.1,10.9-7.8a6.71,6.71,0,0,0-2.9-5.5A12.84,12.84,0,0,0,74.1,125.62Zm3,2.1a6.84,6.84,0,0,1,2.4,5.1,5.61,5.61,0,0,1-.9,3.1,7.45,7.45,0,0,1-2.3,2.4,13.21,13.21,0,0,1-7.5,2.1,14,14,0,0,1-4.1-.6,12.48,12.48,0,0,1-3.5-1.6,7,7,0,0,1-3.3-5.6,6.29,6.29,0,0,1,2.5-5,10.66,10.66,0,0,1,3.2-1.9,4.87,4.87,0,0,0,.7-.3,15.56,15.56,0,0,0,2.4-1.1,2.65,2.65,0,0,0,1.3-1.9,11.51,11.51,0,0,0,2.4,1.8,14.58,14.58,0,0,0,1.9.7,13.35,13.35,0,0,1,1.8.7h0A13.09,13.09,0,0,1,77.1,127.72Z"/><path class="cls-4" d="M64.7,36.12c4-6,19.8-16.5,28.5-19"/><path d="M64.5,36a13.57,13.57,0,0,1,2.2-3.9,31.83,31.83,0,0,1,3-3.3,44.36,44.36,0,0,1,7.3-4.9,72.24,72.24,0,0,1,7.8-4.1,40.86,40.86,0,0,1,8.3-2.9l.1.3a55.61,55.61,0,0,0-7.7,3.9c-2.5,1.5-4.8,3.1-7.1,4.7s-4.4,3.6-6.7,5.3-4.6,3.2-6.9,5Z"/><path class="cls-2" d="M1.5,9.42C5.6,27,9.8,37.12,20.2,42.82c17.6,9.7,35.2,2.7,36-4.6,6.2-10.2,2.1-19.7-12-27.4C31.7,3.92,19,5.92,1.5,9.42Z"/><path class="cls-4" d="M56.2,38.12c-4.5-5.6-21.1-14.8-30-16.5"/><path d="M56,38.22c-2.5-1.6-4.9-3-7.3-4.4s-4.7-3.2-7.1-4.7A78.31,78.31,0,0,0,34.1,25a46.05,46.05,0,0,0-8-3.2l.1-.3a42.52,42.52,0,0,1,8.5,2.2,72.72,72.72,0,0,1,8.1,3.4,44.59,44.59,0,0,1,7.7,4.3,23.52,23.52,0,0,1,3.3,3,16.39,16.39,0,0,1,2.6,3.7Z"/></svg>